<svg width="1280" height="720" xmlns="http://www.w3.org/2000/svg" xmlns:xlink="http://www.w3.org/1999/xlink" overflow="hidden"><defs><filter id="fx0" x="-10%" y="-10%" width="120%" height="120%" filterUnits="userSpaceOnUse" primitiveUnits="userSpaceOnUse"><feComponentTransfer color-interpolation-filters="sRGB"><feFuncR type="discrete" tableValues="0 0"/><feFuncG type="discrete" tableValues="0 0"/><feFuncB type="discrete" tableValues="0 0"/><feFuncA type="linear" slope="0.4" intercept="0"/></feComponentTransfer><feGaussianBlur stdDeviation="2.22222 2.22222"/></filter><filter id="fx1" x="-10%" y="-10%" width="120%" height="120%" filterUnits="userSpaceOnUse" primitiveUnits="userSpaceOnUse"><feComponentTransfer color-interpolation-filters="sRGB"><feFuncR type="discrete" tableValues="0 0"/><feFuncG type="discrete" tableValues="0 0"/><feFuncB type="discrete" tableValues="0 0"/><feFuncA type="linear" slope="0.4" intercept="0"/></feComponentTransfer><feGaussianBlur stdDeviation="2.22222 2.22222"/></filter><filter id="fx2" x="-10%" y="-10%" width="120%" height="120%" filterUnits="userSpaceOnUse" primitiveUnits="userSpaceOnUse"><feComponentTransfer color-interpolation-filters="sRGB"><feFuncR type="discrete" tableValues="0 0"/><feFuncG type="discrete" tableValues="0 0"/><feFuncB type="discrete" tableValues="0 0"/><feFuncA type="linear" slope="0.4" intercept="0"/></feComponentTransfer><feGaussianBlur stdDeviation="2.22222 2.22222"/></filter><filter id="fx3" x="-10%" y="-10%" width="120%" height="120%" filterUnits="userSpaceOnUse" primitiveUnits="userSpaceOnUse"><feComponentTransfer color-interpolation-filters="sRGB"><feFuncR type="discrete" tableValues="0 0"/><feFuncG type="discrete" tableValues="0 0"/><feFuncB type="discrete" tableValues="0 0"/><feFuncA type="linear" slope="0.4" intercept="0"/></feComponentTransfer><feGaussianBlur stdDeviation="2.22222 2.22222"/></filter><filter id="fx4" x="-10%" y="-10%" width="120%" height="120%" filterUnits="userSpaceOnUse" primitiveUnits="userSpaceOnUse"><feComponentTransfer color-interpolation-filters="sRGB"><feFuncR type="discrete" tableValues="0 0"/><feFuncG type="discrete" tableValues="0 0"/><feFuncB type="discrete" tableValues="0 0"/><feFuncA type="linear" slope="0.4" intercept="0"/></feComponentTransfer><feGaussianBlur stdDeviation="2.22222 2.22222"/></filter><filter id="fx5" x="-10%" y="-10%" width="120%" height="120%" filterUnits="userSpaceOnUse" primitiveUnits="userSpaceOnUse"><feComponentTransfer color-interpolation-filters="sRGB"><feFuncR type="discrete" tableValues="0 0"/><feFuncG type="discrete" tableValues="0 0"/><feFuncB type="discrete" tableValues="0 0"/><feFuncA type="linear" slope="0.4" intercept="0"/></feComponentTransfer><feGaussianBlur stdDeviation="2.22222 2.22222"/></filter><linearGradient x1="75.5001" y1="721.052" x2="75.5001" y2="35.6144" gradientUnits="userSpaceOnUse" spreadMethod="reflect" id="stroke6"><stop offset="0" stop-color="#243FFF"/><stop offset="0.00454545" stop-color="#253FFE"/><stop offset="0.00909091" stop-color="#2740FE"/><stop offset="0.0136364" stop-color="#2941FE"/><stop offset="0.0181818" stop-color="#2B41FE"/><stop offset="0.0227273" stop-color="#2D42FE"/><stop offset="0.0272727" stop-color="#2F43FE"/><stop offset="0.0318182" stop-color="#3043FE"/><stop offset="0.0363636" stop-color="#3244FE"/><stop offset="0.0409091" stop-color="#3445FE"/><stop offset="0.0454545" stop-color="#3645FE"/><stop offset="0.05" stop-color="#3846FE"/><stop offset="0.0545455" stop-color="#3947FE"/><stop offset="0.0590909" stop-color="#3B47FD"/><stop offset="0.0636364" stop-color="#3D48FD"/><stop offset="0.0681818" stop-color="#3F49FD"/><stop offset="0.0727273" stop-color="#4049FD"/><stop offset="0.0772727" stop-color="#424AFD"/><stop offset="0.0818182" stop-color="#444AFC"/><stop offset="0.0863636" stop-color="#464BFC"/><stop offset="0.0909091" stop-color="#474CFC"/><stop offset="0.0954545" stop-color="#494CFC"/><stop offset="0.1" stop-color="#4B4DFC"/><stop offset="0.104545" stop-color="#4C4EFB"/><stop offset="0.109091" stop-color="#4E4EFB"/><stop offset="0.113636" stop-color="#504FFB"/><stop offset="0.118182" stop-color="#5250FA"/><stop offset="0.122727" stop-color="#5350FA"/><stop offset="0.127273" stop-color="#5551FA"/><stop offset="0.131818" stop-color="#5651FA"/><stop offset="0.136364" stop-color="#5852F9"/><stop offset="0.140909" stop-color="#5A53F9"/><stop offset="0.145455" stop-color="#5B53F9"/><stop offset="0.15" stop-color="#5D54F8"/><stop offset="0.154545" stop-color="#5F54F8"/><stop offset="0.159091" stop-color="#6055F7"/><stop offset="0.163636" stop-color="#6256F7"/><stop offset="0.168182" stop-color="#6356F7"/><stop offset="0.172727" stop-color="#6557F6"/><stop offset="0.177273" stop-color="#6757F6"/><stop offset="0.181818" stop-color="#6858F5"/><stop offset="0.186364" stop-color="#6A58F5"/><stop offset="0.190909" stop-color="#6B59F5"/><stop offset="0.195455" stop-color="#6D5AF4"/><stop offset="0.2" stop-color="#6E5AF4"/><stop offset="0.204545" stop-color="#705BF3"/><stop offset="0.209091" stop-color="#715BF3"/><stop offset="0.213636" stop-color="#735CF2"/><stop offset="0.218182" stop-color="#745CF2"/><stop offset="0.222727" stop-color="#765DF1"/><stop offset="0.227273" stop-color="#775EF1"/><stop offset="0.231818" stop-color="#795EF0"/><stop offset="0.236364" stop-color="#7A5FF0"/><stop offset="0.240909" stop-color="#7C5FEF"/><stop offset="0.245455" stop-color="#7D60EF"/><stop offset="0.25" stop-color="#7F60EE"/><stop offset="0.254545" stop-color="#8061EE"/><stop offset="0.259091" stop-color="#8261ED"/><stop offset="0.263636" stop-color="#8362EC"/><stop offset="0.268182" stop-color="#8562EC"/><stop offset="0.272727" stop-color="#8663EB"/><stop offset="0.277273" stop-color="#8763EB"/><stop offset="0.281818" stop-color="#8964EA"/><stop offset="0.286364" stop-color="#8A64E9"/><stop offset="0.290909" stop-color="#8C65E9"/><stop offset="0.295455" stop-color="#8D65E8"/><stop offset="0.3" stop-color="#8E66E7"/><stop offset="0.304545" stop-color="#9067E7"/><stop offset="0.309091" stop-color="#9167E6"/><stop offset="0.313636" stop-color="#9268E5"/><stop offset="0.318182" stop-color="#9468E5"/><stop offset="0.322727" stop-color="#9568E4"/><stop offset="0.327273" stop-color="#9669E3"/><stop offset="0.331818" stop-color="#9869E3"/><stop offset="0.336364" stop-color="#996AE2"/><stop offset="0.340909" stop-color="#9A6AE1"/><stop offset="0.345455" stop-color="#9C6BE0"/><stop offset="0.35" stop-color="#9D6BE0"/><stop offset="0.354545" stop-color="#9E6CDF"/><stop offset="0.359091" stop-color="#9F6CDE"/><stop offset="0.363636" stop-color="#A16DDD"/><stop offset="0.368182" stop-color="#A26DDD"/><stop offset="0.372727" stop-color="#A36EDC"/><stop offset="0.377273" stop-color="#A46EDB"/><stop offset="0.381818" stop-color="#A66FDA"/><stop offset="0.386364" stop-color="#A76FD9"/><stop offset="0.390909" stop-color="#A870D9"/><stop offset="0.395455" stop-color="#A970D8"/><stop offset="0.4" stop-color="#AA70D7"/><stop offset="0.404545" stop-color="#AC71D6"/><stop offset="0.409091" stop-color="#AD71D5"/><stop offset="0.413636" stop-color="#AE72D4"/><stop offset="0.418182" stop-color="#AF72D3"/><stop offset="0.422727" stop-color="#B073D3"/><stop offset="0.427273" stop-color="#B173D2"/><stop offset="0.431818" stop-color="#B373D1"/><stop offset="0.436364" stop-color="#B474D0"/><stop offset="0.440909" stop-color="#B574CF"/><stop offset="0.445455" stop-color="#B675CE"/><stop offset="0.45" stop-color="#B775CD"/><stop offset="0.454545" stop-color="#B876CC"/><stop offset="0.459091" stop-color="#B976CB"/><stop offset="0.463636" stop-color="#BA76CA"/><stop offset="0.468182" stop-color="#BB77C9"/><stop offset="0.472727" stop-color="#BD77C8"/><stop offset="0.477273" stop-color="#BE77C7"/><stop offset="0.481818" stop-color="#BF78C6"/><stop offset="0.486364" stop-color="#C078C5"/><stop offset="0.490909" stop-color="#C179C4"/><stop offset="0.495455" stop-color="#C279C3"/><stop offset="0.5" stop-color="#C379C2"/><stop offset="0.504545" stop-color="#C47AC1"/><stop offset="0.509091" stop-color="#C57AC0"/><stop offset="0.513636" stop-color="#C67BBF"/><stop offset="0.518182" stop-color="#C77BBE"/><stop offset="0.522727" stop-color="#C87BBD"/><stop offset="0.527273" stop-color="#C97CBC"/><stop offset="0.531818" stop-color="#CA7CBB"/><stop offset="0.536364" stop-color="#CB7CBA"/><stop offset="0.540909" stop-color="#CC7DB9"/><stop offset="0.545455" stop-color="#CD7DB8"/><stop offset="0.55" stop-color="#CD7DB6"/><stop offset="0.554545" stop-color="#CE7EB5"/><stop offset="0.559091" stop-color="#CF7EB4"/><stop offset="0.563636" stop-color="#D07EB3"/><stop offset="0.568182" stop-color="#D17FB2"/><stop offset="0.572727" stop-color="#D27FB1"/><stop offset="0.577273" stop-color="#D37FB0"/><stop offset="0.581818" stop-color="#D480AE"/><stop offset="0.586364" stop-color="#D580AD"/><stop offset="0.590909" stop-color="#D680AC"/><stop offset="0.595455" stop-color="#D681AB"/><stop offset="0.6" stop-color="#D781AA"/><stop offset="0.604545" stop-color="#D881A8"/><stop offset="0.609091" stop-color="#D982A7"/><stop offset="0.613636" stop-color="#DA82A6"/><stop offset="0.618182" stop-color="#DA82A5"/><stop offset="0.622727" stop-color="#DB82A4"/><stop offset="0.627273" stop-color="#DC83A2"/><stop offset="0.631818" stop-color="#DD83A1"/><stop offset="0.636364" stop-color="#DE83A0"/><stop offset="0.640909" stop-color="#DE849F"/><stop offset="0.645455" stop-color="#DF849D"/><stop offset="0.65" stop-color="#E0849C"/><stop offset="0.654545" stop-color="#E1849B"/><stop offset="0.659091" stop-color="#E18599"/><stop offset="0.663636" stop-color="#E28598"/><stop offset="0.668182" stop-color="#E38597"/><stop offset="0.672727" stop-color="#E48695"/><stop offset="0.677273" stop-color="#E48694"/><stop offset="0.681818" stop-color="#E58693"/><stop offset="0.686364" stop-color="#E68691"/><stop offset="0.690909" stop-color="#E68790"/><stop offset="0.695455" stop-color="#E7878F"/><stop offset="0.7" stop-color="#E8878D"/><stop offset="0.704545" stop-color="#E8878C"/><stop offset="0.709091" stop-color="#E9888A"/><stop offset="0.713636" stop-color="#EA8889"/><stop offset="0.718182" stop-color="#EA8888"/><stop offset="0.722727" stop-color="#EB8886"/><stop offset="0.727273" stop-color="#EB8885"/><stop offset="0.731818" stop-color="#EC8983"/><stop offset="0.736364" stop-color="#ED8982"/><stop offset="0.740909" stop-color="#ED8981"/><stop offset="0.745455" stop-color="#EE897F"/><stop offset="0.75" stop-color="#EE897E"/><stop offset="0.754545" stop-color="#EF8A7C"/><stop offset="0.759091" stop-color="#EF8A7B"/><stop offset="0.763636" stop-color="#F08A79"/><stop offset="0.768182" stop-color="#F08A78"/><stop offset="0.772727" stop-color="#F18A76"/><stop offset="0.777273" stop-color="#F18B75"/><stop offset="0.781818" stop-color="#F28B73"/><stop offset="0.786364" stop-color="#F28B72"/><stop offset="0.790909" stop-color="#F38B70"/><stop offset="0.795455" stop-color="#F38B6F"/><stop offset="0.8" stop-color="#F48C6D"/><stop offset="0.804545" stop-color="#F48C6C"/><stop offset="0.809091" stop-color="#F58C6A"/><stop offset="0.813636" stop-color="#F58C68"/><stop offset="0.818182" stop-color="#F68C67"/><stop offset="0.822727" stop-color="#F68C65"/><stop offset="0.827273" stop-color="#F68C64"/><stop offset="0.831818" stop-color="#F78D62"/><stop offset="0.836364" stop-color="#F78D60"/><stop offset="0.840909" stop-color="#F88D5F"/><stop offset="0.845455" stop-color="#F88D5D"/><stop offset="0.85" stop-color="#F88D5C"/><stop offset="0.854545" stop-color="#F98D5A"/><stop offset="0.859091" stop-color="#F98D58"/><stop offset="0.863636" stop-color="#F98E57"/><stop offset="0.868182" stop-color="#FA8E55"/><stop offset="0.872727" stop-color="#FA8E53"/><stop offset="0.877273" stop-color="#FA8E52"/><stop offset="0.881818" stop-color="#FB8E50"/><stop offset="0.886364" stop-color="#FB8E4E"/><stop offset="0.890909" stop-color="#FB8E4D"/><stop offset="0.895455" stop-color="#FB8E4B"/><stop offset="0.9" stop-color="#FC8E49"/><stop offset="0.904545" stop-color="#FC8F47"/><stop offset="0.909091" stop-color="#FC8F46"/><stop offset="0.913636" stop-color="#FC8F44"/><stop offset="0.918182" stop-color="#FC8F42"/><stop offset="0.922727" stop-color="#FD8F40"/><stop offset="0.927273" stop-color="#FD8F3F"/><stop offset="0.931818" stop-color="#FD8F3D"/><stop offset="0.936364" stop-color="#FD8F3B"/><stop offset="0.940909" stop-color="#FD8F39"/><stop offset="0.945455" stop-color="#FE8F38"/><stop offset="0.95" stop-color="#FE8F36"/><stop offset="0.954545" stop-color="#FE8F34"/><stop offset="0.959091" stop-color="#FE8F32"/><stop offset="0.963636" stop-color="#FE8F30"/><stop offset="0.968182" stop-color="#FE8F2F"/><stop offset="0.972727" stop-color="#FE8F2D"/><stop offset="0.977273" stop-color="#FE8F2B"/><stop offset="0.981818" stop-color="#FE8F29"/><stop offset="0.986364" stop-color="#FE8F27"/><stop offset="0.990909" stop-color="#FE8F25"/><stop offset="0.995455" stop-color="#FE8F23"/><stop offset="1" stop-color="#FF9022"/></linearGradient></defs><g><rect x="0" y="0" width="1280" height="720" fill="#FFFFFF"/><path d="M75.5001 37.5001 75.5002 719.167" stroke="url(#stroke6)" stroke-width="2.66667" stroke-linecap="square" stroke-linejoin="bevel" stroke-miterlimit="10" fill="none" fill-rule="evenodd"/><text font-family="Roboto,Roboto_MSFontService,sans-serif" font-weight="700" font-size="43" transform="translate(433.167 82)">APP BUILD PROCESS</text><rect x="392" y="158" width="193" height="47" fill="#243FFF"/><text fill="#FFFFFF" font-family="Roboto,Roboto_MSFontService,sans-serif" font-weight="700" font-size="16" transform="translate(442.73 178)">DECIDE ON APP</text><text fill="#FFFFFF" font-family="Roboto,Roboto_MSFontService,sans-serif" font-weight="700" font-size="16" transform="translate(436.73 197)">TYPE AND NAME</text><path d="M579 145 632 181.5 579 218Z" fill="#243FFF" fill-rule="evenodd"/><rect x="217" y="158" width="175" height="47" fill="#FF83B6"/><text fill="#FFFFFF" font-family="Roboto,Roboto_MSFontService,sans-serif" font-weight="700" font-size="16" transform="translate(299.325 178)">SITE</text><text fill="#FFFFFF" font-family="Roboto,Roboto_MSFontService,sans-serif" font-weight="700" font-size="16" transform="translate(265.325 197)">BRAINSTORM</text><path d="M387 145 434 181.5 387 218Z" fill="#FF83B6" fill-rule="evenodd"/><path d="M173 181.5C173 158.028 192.252 139 216 139 239.748 139 259 158.028 259 181.5 259 204.972 239.748 224 216 224 192.252 224 173 204.972 173 181.5Z" fill="#FF83B6" fill-rule="evenodd"/><rect x="641" y="512" width="175" height="47" fill="#243FFF"/><text fill="#FFFFFF" font-family="Roboto,Roboto_MSFontService,sans-serif" font-weight="700" font-size="13" transform="translate(685.485 533)">FUNCTIONAL SITE</text><text fill="#FFFFFF" font-family="Roboto,Roboto_MSFontService,sans-serif" font-weight="700" font-size="13" transform="translate(705.485 549)">OPERATING</text><path d="M798 500 846 536.5 798 573Z" fill="#243FFF" fill-rule="evenodd"/><path d="M864.863 163.002C926.994 162.65 977.646 212.732 977.998 274.863 978.299 327.943 941.456 374.011 889.609 385.386L882.203 351.634C924.251 342.409 950.859 300.844 941.634 258.797 933.752 222.874 901.835 197.349 865.059 197.557Z" fill="#D96C00" fill-rule="evenodd"/><path d="M0 48 36.5 0 73 48Z" fill="#D96C00" fill-rule="evenodd" transform="matrix(1.83697e-16 1 1 -1.83697e-16 844 331)"/><g filter="url(#fx0)" transform="translate(172 138)"><g><path d="M8.3 43.5C8.3 24.0651 24.2834 8.31 44 8.31 63.7166 8.31 79.7 24.0651 79.7 43.5 79.7 62.9349 63.7166 78.69 44 78.69 24.2834 78.69 8.3 62.9349 8.3 43.5Z" fill="#FFFFFF" fill-rule="evenodd"/></g></g><path d="M181 181.5C181 162.446 196.67 147 216 147 235.33 147 251 162.446 251 181.5 251 200.554 235.33 216 216 216 196.67 216 181 200.554 181 181.5Z" fill="#FFFFFF" fill-rule="evenodd"/><text font-family="Roboto,Roboto_MSFontService,sans-serif" font-weight="700" font-size="21" transform="translate(204.108 189)">01</text><rect x="676" y="160" width="175" height="47" fill="#1A98FF"/><text fill="#FFFFFF" font-family="Roboto,Roboto_MSFontService,sans-serif" font-weight="700" font-size="13" transform="translate(730.241 173)">START DESIGN</text><text fill="#FFFFFF" font-family="Roboto,Roboto_MSFontService,sans-serif" font-weight="700" font-size="13" transform="translate(724.241 189)">PROCESS/ BUILD</text><text fill="#FFFFFF" font-family="Roboto,Roboto_MSFontService,sans-serif" font-weight="700" font-size="13" transform="translate(746.241 205)">BACKEND</text><path d="M0.00172244 113.137C-0.350094 51.006 49.7319 0.353657 111.863 0.00184068 173.994-0.349976 224.646 49.732 224.998 111.863 225.023 116.239 224.792 120.614 224.307 124.963L191.058 121.257C195.895 77.8704 164.643 38.7781 121.257 33.9418 77.8704 29.1056 38.7781 60.3568 33.9419 103.743 33.6012 106.799 33.4392 109.873 33.4566 112.948Z" fill="#D96C00" fill-rule="evenodd" transform="matrix(1.83697e-16 1 1 -1.83697e-16 254 338)"/><path d="M368 506 416 542.5 368 579Z" fill="#D96C00" fill-rule="evenodd"/><path d="M846 147 893 183.5 846 220Z" fill="#1A98FF" fill-rule="evenodd"/><path d="M632 181.5C632 158.028 651.252 139 675 139 698.748 139 718 158.028 718 181.5 718 204.972 698.748 224 675 224 651.252 224 632 204.972 632 181.5Z" fill="#1A98FF" fill-rule="evenodd"/><g filter="url(#fx1)" transform="translate(631 138)"><g><path d="M8.29999 43.5C8.29999 24.0651 24.2834 8.31 44 8.31 63.7166 8.31 79.7 24.0651 79.7 43.5 79.7 62.9349 63.7166 78.69 44 78.69 24.2834 78.69 8.29999 62.9349 8.29999 43.5Z" fill="#FFFFFF" fill-rule="evenodd"/></g></g><path d="M640 181.5C640 162.446 655.67 147 675 147 694.33 147 710 162.446 710 181.5 710 200.554 694.33 216 675 216 655.67 216 640 200.554 640 181.5Z" fill="#FFFFFF" fill-rule="evenodd"/><text font-family="Roboto,Roboto_MSFontService,sans-serif" font-weight="700" font-size="21" transform="translate(663.021 189)">02</text><rect x="0" y="0" width="174" height="47" fill="#FF1F85" transform="matrix(-1 0 0 1 792 336)"/><text fill="#FFFFFF" font-family="Roboto,Roboto_MSFontService,sans-serif" font-weight="700" font-size="12" transform="translate(629.341 356)">FIRST DRAFT OF</text><text fill="#FFFFFF" font-family="Roboto,Roboto_MSFontService,sans-serif" font-weight="700" font-size="12" transform="translate(629.341 371)">FRONTEND DEVELOPED</text><path d="M0 47 36.5 0 73 47Z" fill="#FF1F85" fill-rule="evenodd" transform="matrix(1.83697e-16 1 1 -1.83697e-16 581 323)"/><path d="M0 42.5C-5.47447e-15 19.0279 19.2518-5.41082e-15 43-1.08216e-14 66.7482-2.16433e-14 86 19.0279 86 42.5 86 65.9721 66.7482 85 43 85 19.2518 85-2.73724e-14 65.9721 0 42.5Z" fill="#FF1F85" fill-rule="evenodd" transform="matrix(-1 0 0 1 846 315)"/><g filter="url(#fx2)" transform="translate(759 314)"><g><path d="M0 35.19C-4.54509e-15 15.7551 15.9834-4.48016e-15 35.7-8.96031e-15 55.4166-1.79206e-14 71.4 15.7551 71.4 35.19 71.4 54.6249 55.4166 70.38 35.7 70.38 15.9834 70.38-2.27254e-14 54.6249 0 35.19Z" fill="#FFFFFF" fill-rule="evenodd" transform="matrix(-1 0 0 1 79.7 8.31)"/></g></g><path d="M0 34.5C-4.45597e-15 15.4462 15.67-4.39231e-15 35-8.78462e-15 54.33-1.75692e-14 70 15.4462 70 34.5 70 53.5538 54.33 69 35 69 15.67 69-2.22798e-14 53.5538 0 34.5Z" fill="#FFFFFF" fill-rule="evenodd" transform="matrix(-1 0 0 1 838 323)"/><text font-family="Roboto,Roboto_MSFontService,sans-serif" font-weight="700" font-size="21" transform="translate(790.984 364)">03</text><rect x="0" y="0" width="175" height="47" fill="#10013F" transform="matrix(-1 0 0 1 538 336)"/><text fill="#FFFFFF" font-family="Roboto,Roboto_MSFontService,sans-serif" font-weight="700" font-size="16" transform="translate(374.622 355)">BLOGS STORED</text><text fill="#FFFFFF" font-family="Roboto,Roboto_MSFontService,sans-serif" font-weight="700" font-size="16" transform="translate(374.622 374)">IN BACKEND</text><path d="M0 48 36.5 0 73 48Z" fill="#10013F" fill-rule="evenodd" transform="matrix(1.83697e-16 1 1 -1.83697e-16 319 323)"/><path d="M0 42.5C-5.41082e-15 19.0279 19.0279-5.41082e-15 42.5-1.08216e-14 65.9721-2.16433e-14 85 19.0279 85 42.5 85 65.9721 65.9721 85 42.5 85 19.0279 85-2.70541e-14 65.9721 0 42.5Z" fill="#10013F" fill-rule="evenodd" transform="matrix(-1 0 0 1 580 315)"/><g filter="url(#fx3)" transform="translate(494 314)"><g><path d="M0 35.19C-4.48016e-15 15.7551 15.7551-4.48016e-15 35.19-8.96031e-15 54.6249-1.79206e-14 70.38 15.7551 70.38 35.19 70.38 54.6249 54.6249 70.38 35.19 70.38 15.7551 70.38-2.24008e-14 54.6249 0 35.19Z" fill="#FFFFFF" fill-rule="evenodd" transform="matrix(-1 0 0 1 78.69 8.31)"/></g></g><path d="M0 34.5C-4.39231e-15 15.4462 15.4462-4.39231e-15 34.5-8.78462e-15 53.5538-1.75692e-14 69 15.4462 69 34.5 69 53.5538 53.5538 69 34.5 69 15.4462 69-2.19616e-14 53.5538 0 34.5Z" fill="#FFFFFF" fill-rule="evenodd" transform="matrix(-1 0 0 1 572 323)"/><text font-family="Roboto,Roboto_MSFontService,sans-serif" font-weight="700" font-size="21" transform="translate(525.756 364)">04</text><rect x="889" y="515" width="175" height="47" fill="#FF83B6"/><text fill="#FFFFFF" font-family="Roboto,Roboto_MSFontService,sans-serif" font-weight="700" font-size="12" transform="translate(934.581 535)">TESTED/BUG FIXED</text><text fill="#FFFFFF" font-family="Roboto,Roboto_MSFontService,sans-serif" font-weight="700" font-size="12" transform="translate(945.581 550)">AND DEPLOYED</text><path d="M1059 502 1107 538.5 1059 575Z" fill="#FF83B6" fill-rule="evenodd"/><path d="M846 536.5C846 513.028 865.028 494 888.5 494 911.972 494 931 513.028 931 536.5 931 559.972 911.972 579 888.5 579 865.028 579 846 559.972 846 536.5Z" fill="#FF83B6" fill-rule="evenodd"/><g filter="url(#fx4)" transform="translate(845 493)"><g><path d="M8.31 43.5C8.31 24.0651 24.0651 8.31 43.5 8.31 62.9349 8.31 78.69 24.0651 78.69 43.5 78.69 62.9349 62.9349 78.69 43.5 78.69 24.0651 78.69 8.31 62.9349 8.31 43.5Z" fill="#FFFFFF" fill-rule="evenodd"/></g></g><path d="M854 536.5C854 517.446 869.446 502 888.5 502 907.554 502 923 517.446 923 536.5 923 555.554 907.554 571 888.5 571 869.446 571 854 555.554 854 536.5Z" fill="#FFFFFF" fill-rule="evenodd"/><text font-family="Roboto,Roboto_MSFontService,sans-serif" font-weight="700" font-size="21" transform="translate(876.36 544)">06</text><rect x="466" y="516" width="175" height="47" fill="#1A98FF"/><text fill="#FFFFFF" font-family="Roboto,Roboto_MSFontService,sans-serif" font-weight="700" font-size="16" transform="translate(504.177 535)">LOGIN ENABLED</text><text fill="#FFFFFF" font-family="Roboto,Roboto_MSFontService,sans-serif" font-weight="700" font-size="16" transform="translate(509.177 554)">REGISTRATION</text><path d="M628 502 676 538.5 628 575Z" fill="#1A98FF" fill-rule="evenodd"/><path d="M415 536.5C415 513.028 434.028 494 457.5 494 480.972 494 500 513.028 500 536.5 500 559.972 480.972 579 457.5 579 434.028 579 415 559.972 415 536.5Z" fill="#1A98FF" fill-rule="evenodd"/><g filter="url(#fx5)" transform="translate(414 493)"><g><path d="M8.31 43.5C8.31 24.0651 24.0651 8.31 43.5 8.31 62.9349 8.31 78.69 24.0651 78.69 43.5 78.69 62.9349 62.9349 78.69 43.5 78.69 24.0651 78.69 8.31 62.9349 8.31 43.5Z" fill="#FFFFFF" fill-rule="evenodd"/></g></g><path d="M423 536.5C423 517.446 438.446 502 457.5 502 476.554 502 492 517.446 492 536.5 492 555.554 476.554 571 457.5 571 438.446 571 423 555.554 423 536.5Z" fill="#FFFFFF" fill-rule="evenodd"/><text font-family="Roboto,Roboto_MSFontService,sans-serif" font-weight="700" font-size="21" transform="translate(445.85 544)">05</text><text font-family="Roboto,Roboto_MSFontService,sans-serif" font-weight="400" font-size="14" transform="translate(930.301 615)">Test fully and fix issues,</text><text font-family="Roboto,Roboto_MSFontService,sans-serif" font-weight="400" font-size="14" transform="translate(935.301 635)">then deploy if possible</text><text font-family="Roboto,Roboto_MSFontService,sans-serif" font-weight="400" font-size="14" transform="translate(667.205 615)">Add, edit and delete posts</text><text font-family="Roboto,Roboto_MSFontService,sans-serif" font-weight="400" font-size="14" transform="translate(671.205 635)">Show posts, group filters</text><text font-family="Roboto,Roboto_MSFontService,sans-serif" font-weight="400" font-size="14" transform="translate(433.762 615)">Using Google Auth if possible</text><text font-family="Roboto,Roboto_MSFontService,sans-serif" font-weight="400" font-size="14" transform="translate(622.559 437)">Blog Create and Blog list</text><text font-family="Roboto,Roboto_MSFontService,sans-serif" font-weight="400" font-size="14" transform="translate(630.559 457)">working in some form</text><text font-family="Roboto,Roboto_MSFontService,sans-serif" font-weight="400" font-size="14" transform="translate(375.113 437)">Connecting frontend to backend</text><text font-family="Roboto,Roboto_MSFontService,sans-serif" font-weight="400" font-size="14" transform="translate(415.113 457)">for CRUD functions</text><text font-family="Roboto,Roboto_MSFontService,sans-serif" font-weight="400" font-size="14" transform="translate(435.85 257)">Brainstorming functionality</text><text font-family="Roboto,Roboto_MSFontService,sans-serif" font-weight="400" font-size="14" transform="translate(477.85 277)">and the name</text><text font-family="Roboto,Roboto_MSFontService,sans-serif" font-weight="400" font-size="14" transform="translate(208.41 257)">Team brainstormed app ideas</text><text font-family="Roboto,Roboto_MSFontService,sans-serif" font-weight="400" font-size="14" transform="translate(237.41 277)">that fulfill the criteria</text><text font-family="Roboto,Roboto_MSFontService,sans-serif" font-weight="400" font-size="14" transform="translate(641.08 257)">One team working on design, other team</text><text font-family="Roboto,Roboto_MSFontService,sans-serif" font-weight="400" font-size="14" transform="translate(660.08 277)">working on getting app framework</text><text font-family="Roboto,Roboto_MSFontService,sans-serif" font-weight="400" font-size="14" transform="translate(674.08 297)">created and login researched.</text><path d="M0.00172244 113.137C-0.350094 51.006 49.7319 0.353657 111.863 0.00184068 173.994-0.349976 224.646 49.732 224.998 111.863 225.147 138.218 216.039 163.788 199.262 184.114L199.263 184.114C238.814 136.196 232.031 65.2886 184.114 25.7375 136.196-13.8136 65.2887-7.03125 25.7375 40.8864 8.96082 61.2119-0.147389 86.7824 0.00184335 113.137Z" fill="#D96C00" fill-rule="evenodd" transform="matrix(1.83697e-16 1 1 -1.83697e-16 270 354)"/></g></svg>